<svg width="414" height="185" viewBox="0 0 414 185" fill="none" xmlns="http://www.w3.org/2000/svg">
<g clip-path="url(#clip0_45_492)">
<path d="M272.858 156.963V159.847C272.368 159.902 271.973 159.948 271.577 159.994C271.409 159.994 271.241 159.994 271.073 159.994C270.781 159.98 270.489 159.953 270.196 159.953C251.274 159.951 232.351 159.951 213.43 159.95C212.892 159.95 212.355 159.95 211.795 159.95C211.726 160.371 211.68 160.654 211.634 160.936C210.976 160.984 210.658 161.335 210.68 161.987V163.879C211.081 163.938 211.358 163.979 211.635 164.021C211.683 164.671 212.04 164.971 212.706 164.92C213.083 164.937 213.459 164.966 213.835 164.966C228.177 164.968 242.518 164.968 256.86 164.966C257.235 164.966 257.611 164.925 257.986 164.904C258.517 164.945 259.05 164.986 259.678 165.033V167.805C259.212 167.977 258.584 168.141 258.672 168.919C258.297 168.919 258.015 168.919 257.733 168.919C257.688 168.644 257.643 168.37 257.597 168.099H230.63C230.597 168.429 230.573 168.674 230.549 168.919C230.158 169.045 229.575 168.845 229.532 169.567C229.523 169.717 229.278 169.953 229.116 169.976C228.391 170.085 228.577 170.57 228.631 171.013C228.586 171.634 228.892 171.965 229.55 172.005C229.583 172.287 229.615 172.571 229.662 172.974H236.526C236.566 173.374 236.595 173.654 236.623 173.935C236.665 174.561 236.351 175.233 236.863 175.799C236.772 176.045 236.68 176.292 236.587 176.538C236.414 176.685 236.242 176.833 236.069 176.979C229.069 176.989 222.068 177 215.067 177.012C214.524 177.012 213.98 177.042 213.435 177.058C212.671 177.119 212.631 176.579 212.585 176.042C212.585 175.537 212.588 175.031 212.588 174.524V173.04H178.436C178.115 172.603 178.31 171.955 177.642 171.911C177.556 171.906 177.434 171.571 177.428 171.385C177.404 170.64 177.418 169.892 177.418 169.093C177.813 169.024 178.132 168.969 178.449 168.912C178.698 168.935 178.947 168.978 179.196 168.978C184.389 168.981 189.583 168.98 194.776 168.978C194.979 168.978 195.18 168.939 195.465 168.91C195.359 168.113 195.91 167.923 196.528 167.808C196.508 167.409 196.493 167.081 196.477 166.751C196.474 166.502 196.472 166.253 196.469 166.004C196.52 165.334 196.219 165.005 195.564 165.019C195.021 165.002 194.477 164.969 193.933 164.969C180.775 164.967 167.616 164.969 154.459 164.967C154.083 164.967 153.706 164.939 153.33 164.925C153.282 164.332 152.942 163.99 152.309 163.9C152.304 162.943 152.299 161.986 152.294 161.029C152.938 160.923 153.279 160.577 153.315 159.991C154.442 159.977 155.57 159.953 156.697 159.953C162.504 159.95 168.311 159.952 174.138 159.952C174.455 159.557 174.377 158.811 175.151 158.858C175.2 158.861 175.285 158.299 175.353 157.999C175.4 157.331 175.097 156.981 174.445 156.949L174.423 156.966C174.367 156.653 174.313 156.338 174.243 155.938C173.548 155.938 172.925 155.938 172.301 155.938C167.564 155.938 162.828 155.939 158.094 155.934C157.508 155.934 156.923 155.895 156.338 155.875C156.456 155.147 156.115 154.788 155.373 154.872V153.113C155.772 152.84 156.642 152.958 156.184 152.002H153.438C153.145 152.234 153.427 153.043 152.629 153.003C152.523 152.998 152.387 153.604 152.265 153.928C151.934 153.945 151.602 153.962 151.271 153.979H143.424C142.944 154.93 143.732 154.862 144.208 155.067V156.748C143.62 156.9 143.042 157.114 143.13 157.947C142.521 157.947 142.023 157.947 141.524 157.947C124.974 157.945 108.422 157.944 91.8719 157.944C91.5371 157.944 91.2036 157.974 90.8688 157.99C90.4799 157.937 90.0947 157.903 90.091 158.464C90.0847 159.27 90.0897 160.076 90.0897 160.938C90.5579 160.917 90.8411 160.903 91.1243 160.891C91.6667 160.913 92.2079 160.955 92.7504 160.955C105.047 160.958 117.344 160.957 129.641 160.96C130.142 160.96 130.643 160.992 131.142 161.01C131.183 161.617 131.509 161.946 132.121 161.997C132.159 161.965 132.202 161.953 132.25 161.963C132.246 162.645 132.241 163.325 132.237 164.006C132.184 164.288 132.132 164.572 132.057 164.972H130.687C123.284 164.972 115.881 164.972 108.478 164.974C107.977 164.974 107.476 165.006 106.975 165.023C106.32 165.009 106.018 165.338 106.069 166.011V167.958H111.941C111.925 168.733 112.285 169.106 112.982 169.073C113.03 169.787 113.071 170.403 113.113 171.02C113.068 171.351 113.022 171.683 112.977 172.013C112.822 172.024 112.667 172.035 112.513 172.046C111.842 172.044 111.17 172.043 110.499 172.041C106.794 172.028 103.087 172.006 99.3818 172.001C97.4675 171.999 95.552 172.026 93.6377 172.041C93.1468 172.03 92.656 172.018 92.1651 172.006C92.116 171.68 92.0669 171.355 92.0179 171.029C92.0607 170.41 92.1034 169.792 92.1538 169.067C92.7164 168.997 93.3671 168.894 92.9001 167.984C92.3879 167.984 91.8907 167.984 91.3936 167.984C82.1141 167.984 72.8345 167.984 63.5549 167.985C63.1799 167.985 62.8048 168.013 62.4285 168.027C62.2762 168.017 62.1227 168.007 61.9704 167.997C61.8672 167.353 61.5215 167.012 60.9333 166.974C60.927 166.644 60.9195 166.314 60.9132 165.986C61.5399 165.95 61.8709 165.621 61.9062 164.997H76.867C76.9085 164.277 77.1665 163.804 77.9444 163.89V162.126C77.5366 161.936 76.8771 161.929 76.906 161.189C76.9085 161.137 76.4932 161.068 76.2717 161.005C75.7708 160.99 75.2699 160.962 74.7689 160.962C64.4435 160.96 54.1168 160.96 43.7914 160.962C42.5378 160.962 41.2843 160.982 40.0307 160.992C39.6028 160.061 39.8344 159.095 39.8986 158.142C39.9048 158.048 40.1465 157.97 40.2786 157.883C40.4863 157.903 40.694 157.941 40.9016 157.941C46.2255 157.944 51.5493 157.945 56.8731 157.94C57.1575 157.94 57.4432 157.895 57.773 157.866C57.8057 157.532 57.8334 157.249 57.8624 156.966C58.1405 156.936 58.4186 156.906 58.8075 156.863C58.8075 156.225 58.8075 155.599 58.8075 154.971C58.8075 154.664 58.8075 154.358 58.8075 153.978H57.6471C53.1288 153.964 48.6105 153.952 44.0909 153.935C43.6731 153.934 43.2552 153.913 42.8374 153.9C42.8134 153.619 42.7895 153.338 42.7606 152.996C42.427 152.964 42.1464 152.938 41.867 152.913C41.8456 152.607 41.8254 152.3 41.8041 151.996C42.1816 151.839 42.7127 152.047 42.8587 151.35C42.9242 151.037 43.4918 150.85 43.7737 150.552C43.8581 150.463 43.7448 150.189 43.7158 149.949H26.9414C26.8395 149.017 26.7388 148.086 26.618 146.977C27.2611 146.95 27.7419 146.911 28.2214 146.911C35.2619 146.907 42.3025 146.91 49.3442 146.905C49.8452 146.905 50.3461 146.861 50.847 146.838C51.5006 146.886 51.8035 146.584 51.7557 145.932V143.98C51.441 143.955 51.1667 143.934 50.8923 143.911C50.8269 143.597 50.7614 143.283 50.6809 142.895C50.2064 142.895 49.7936 142.895 49.3795 142.895C45.902 142.895 42.4233 142.896 38.9458 142.895C30.5233 142.89 22.1009 142.884 13.6784 142.877C13.6017 142.423 13.7401 141.889 12.9497 141.852C12.4387 141.828 12.6716 141.273 12.6086 140.941C12.9283 140.877 13.2467 140.815 13.5828 140.748C13.6079 140.363 13.6306 140.032 13.652 139.702L13.6457 139.718C14.1907 139.709 14.7356 139.694 15.2806 139.694C50.3863 139.694 85.4908 139.693 120.597 139.697C121.097 139.697 121.6 139.742 122.101 139.767C122.101 140.761 122.101 141.756 122.101 142.461C122.677 143.048 123.055 143.432 123.539 143.927C125.131 143.927 126.891 143.927 128.65 143.927C137.54 143.934 146.428 143.941 155.317 143.949C155.317 144.896 155.317 145.842 155.317 146.911H134.33L134.425 147.137C134.052 147.505 133.678 147.873 133.287 148.259V149.933C134.65 149.933 135.904 149.933 137.158 149.933C137.192 150.58 137.226 151.228 137.26 151.883C137.611 151.917 137.818 151.952 138.023 151.952C142.424 151.954 146.824 151.954 151.226 151.953C151.393 151.953 151.585 151.999 151.723 151.933C151.918 151.838 152.142 151.689 152.221 151.506C152.271 151.391 152.118 151.134 151.989 151.007C151.655 150.673 151.285 150.375 150.783 149.934H137.156C137.2 149.286 137.243 148.636 137.294 147.867H166.267V143.951H155.315C155.349 143.639 155.381 143.325 155.429 142.879H164.368V139.765C164.34 139.725 164.332 139.682 164.346 139.635C164.847 139.654 165.349 139.689 165.85 139.689C194.299 139.692 222.747 139.692 251.196 139.689C251.698 139.689 252.199 139.658 252.702 139.642C252.707 139.688 252.702 139.732 252.684 139.775C252.708 140.796 252.733 141.818 252.761 142.958H290.609C290.653 143.323 290.682 143.566 290.711 143.811C289.124 143.861 287.537 143.911 285.943 143.963C285.895 144.624 285.856 145.154 285.817 145.685H267.372C267.339 146.188 267.315 146.551 267.291 146.913C267.129 146.925 266.968 146.936 266.805 146.947C266.042 146.886 265.639 146.468 265.598 145.693C264.245 145.693 262.885 145.685 261.523 145.696C261.025 145.7 260.767 145.991 260.758 146.483C260.748 146.979 260.758 147.474 260.759 147.97C260.748 148.211 260.738 148.453 260.726 148.695C260.171 148.682 259.711 148.825 259.772 149.494C259.83 150.117 260.365 149.893 260.734 149.949C260.773 150.563 260.812 151.176 260.86 151.927C261.43 151.927 261.922 151.927 262.414 151.927C265.681 151.927 268.947 151.922 272.215 151.929C275.02 151.935 277.825 151.957 280.63 151.971C280.64 153.67 280.92 153.95 282.627 153.962C282.709 153.962 282.791 153.959 282.874 153.958C282.855 154.286 282.835 154.614 282.816 154.943C282.117 154.879 281.8 155.195 281.864 155.892C278.554 155.921 275.244 155.95 271.982 155.979C271.655 157.042 272.329 156.922 272.851 156.969L272.858 156.963ZM254.689 151.873C255.379 151.92 255.72 151.611 255.71 150.944V148.953C255.124 149.008 254.737 148.819 254.672 148.183C254.659 148.047 254.209 147.956 253.96 147.844C253.686 146.852 253.554 146.706 252.678 146.689C251.434 146.665 250.191 146.665 248.948 146.689C248.072 146.705 247.94 146.851 247.666 147.843C247.337 147.878 247.009 147.913 246.68 147.948C246.012 147.965 245.681 148.313 245.689 148.992C245.705 149.636 245.721 150.278 245.738 150.922C245.69 151.599 246.006 151.915 246.687 151.869C249.354 151.869 252.022 151.871 254.689 151.873ZM183.604 155.894H196.416C196.391 155.143 196.921 154.88 197.49 154.751V153.348C196.951 152.799 196.585 152.426 196.139 151.971H183.863C183.371 152.482 183.009 152.859 182.51 153.379V154.909C183.379 154.663 183.43 155.352 183.605 155.894H183.604ZM67.1772 153.676C67.1772 153.746 67.1746 153.815 67.1734 153.885H77.8449C78.0752 153.492 77.9632 152.799 78.7159 152.85C78.7788 152.854 78.8732 152.391 78.9525 152.144C78.2955 152.014 78.006 151.506 77.7367 150.976C76.9513 151.087 77.0873 150.267 76.7877 149.979H67.376C66.7983 150.518 66.4119 150.878 65.989 151.273V152.543C66.4799 153.011 66.8273 153.344 67.1759 153.677L67.1772 153.676ZM129.086 146.974H121.163C121.311 147.82 120.69 147.937 120.203 148.054V149.841H129.087V146.974H129.086Z" fill="#66B3BB"/>
<path d="M282.88 153.952C282.798 153.953 282.717 153.957 282.633 153.955C280.927 153.945 280.646 153.666 280.636 151.964C281.002 151.925 281.369 151.886 281.756 151.845C281.872 151.375 281.887 150.942 282.525 150.85C283.032 150.779 282.898 150.328 282.655 149.913H274.244C272.862 149.913 271.479 149.928 270.097 149.909C268.692 149.889 267.28 149.997 265.883 149.84C265.826 149.135 265.781 148.568 265.731 147.947C264.344 147.947 263.054 147.947 261.762 147.947C261.429 147.952 261.097 147.958 260.763 147.963C260.762 147.468 260.752 146.971 260.762 146.475C260.772 145.985 261.029 145.694 261.527 145.689C262.889 145.678 264.249 145.685 265.602 145.685C265.643 146.46 266.046 146.877 266.809 146.938C266.851 147.248 266.894 147.558 266.935 147.868H285.814C285.835 147.533 285.853 147.257 285.871 146.98L285.957 146.892H290.477C291.057 146.321 291.427 145.956 291.924 145.467V143.941H295.494C296.075 143.354 296.451 142.975 296.926 142.496V141.073C296.613 140.955 296.348 140.856 295.998 140.723V139.752C295.971 139.712 295.963 139.669 295.976 139.623C296.561 139.642 297.146 139.678 297.731 139.678C332.176 139.681 366.62 139.681 401.065 139.678C401.526 139.678 401.985 139.652 402.446 139.638C402.865 139.634 403.284 139.632 403.703 139.628C404.164 139.654 404.472 139.796 404.446 140.357C404.409 141.128 404.437 141.903 404.437 142.748C404.154 142.818 403.928 142.874 403.703 142.93C400.62 142.93 397.535 142.93 394.449 142.93C394.371 143.427 394.273 143.776 394.841 143.902C395.059 143.951 395.223 144.239 395.412 144.418C395.412 144.669 395.412 144.92 395.412 145.171C395.373 145.744 395.334 146.317 395.296 146.892C388.867 146.893 382.439 146.895 376.011 146.898C375.594 146.898 375.177 146.926 374.761 146.941C374.293 146.941 373.824 146.941 373.276 146.941C373.306 147.467 373.326 147.825 373.347 148.184V149.86H391.12C391.345 150.412 391.411 151.062 392.177 151.037C392.245 151.035 392.322 151.302 392.394 151.444C392.39 152.03 392.386 152.614 392.382 153.2C392.353 153.432 392.324 153.666 392.295 153.898C389.346 153.898 386.398 153.898 383.398 153.898V154.93C383.398 155.281 383.396 155.633 383.396 155.984C383.398 156.319 383.402 156.653 383.405 156.988L383.318 156.964C382.71 157.002 382.367 157.312 382.29 157.893C381.913 157.909 381.537 157.936 381.161 157.936C365.234 157.939 349.307 157.939 333.381 157.936C333.005 157.936 332.628 157.909 332.252 157.893C332.171 157.54 332.358 157.003 331.727 157.001C331.095 157.001 331.28 157.536 331.2 157.891C330.914 157.926 330.627 157.962 330.234 158.011C330.234 158.507 330.234 158.989 330.234 159.472C330.234 159.938 330.234 160.405 330.234 160.953C330.756 160.923 331.115 160.902 331.475 160.881C332.018 160.902 332.56 160.943 333.102 160.943C345.319 160.947 357.536 160.946 369.753 160.947C370.255 160.947 370.756 160.962 371.258 160.97C371.294 161.594 371.626 161.924 372.254 161.96L372.264 161.971C372.288 162.394 372.312 162.818 372.337 163.241C372.299 163.486 372.261 163.734 372.223 163.979C371.38 163.796 371.23 164.326 371.194 164.973H346.167C346.167 165.535 346.167 166.014 346.167 166.494C346.167 166.955 346.167 167.418 346.167 167.98C346.719 167.949 347.151 167.925 347.583 167.9H351.985C352.206 168.504 352.173 169.26 353.108 168.976V170.985C352.526 171.024 352.179 171.361 352.068 171.998C345.471 171.998 338.872 171.998 332.275 171.996C332.171 171.349 331.833 171.013 331.259 170.989C331.214 170.41 331.168 169.833 331.123 169.255C331.482 169.136 331.84 169.015 332.199 168.896C332.57 168.975 332.954 169.049 332.971 168.491C332.987 167.934 332.588 167.993 332.219 168.031C331.76 168.01 331.299 167.972 330.84 167.972C321.865 167.968 312.889 167.968 303.914 167.972C303.286 167.972 302.656 167.999 302.028 168.014C301.746 167.974 301.464 167.935 301.013 167.871V165.964C301.63 165.928 301.965 165.595 302.018 164.964C306.221 164.962 310.424 164.962 314.627 164.954C315.124 164.954 315.621 164.91 316.119 164.888C316.472 164.922 316.929 165.129 317.048 164.607C317.144 164.189 317.275 163.954 317.733 163.889C317.868 163.87 318.022 163.542 318.039 163.343C318.048 163.238 317.796 163.072 317.633 163.003C317.49 162.943 317.306 162.982 317.14 162.977C317.1 162.646 317.061 162.315 317.021 161.983C317.021 161.679 317.021 161.372 317.021 161.046C316.775 161.009 316.619 160.966 316.463 160.965C316.098 160.962 315.734 160.98 315.369 160.989C315.077 160.975 314.785 160.948 314.495 160.948C303.837 160.946 293.179 160.946 282.521 160.948C282.229 160.948 281.937 160.975 281.647 160.989C281.063 160.978 280.48 160.967 279.896 160.957L279.905 160.965C279.818 160.327 279.478 159.988 278.887 159.95C278.88 159.612 278.873 159.274 278.867 158.936C279.618 159.092 279.926 158.681 279.956 157.921H297.523C298.088 157.358 298.458 156.99 298.889 156.56V153.948C293.491 153.948 288.186 153.948 282.883 153.948L282.88 153.952ZM361.173 146.935C360.503 146.929 360.192 147.271 360.24 147.961V149.912C363.3 149.89 366.238 149.942 369.21 149.877V147.938C368.376 148.149 368.264 147.527 368.104 146.935H361.173ZM316.663 149.964H307.122C307.166 150.701 306.737 151.01 306.116 151.02V153.852H318.03V151.301C317.527 150.809 317.151 150.441 316.663 149.963V149.964Z" fill="#66B3BB"/>
<path d="M215.703 184.974H203.793C203.526 184.556 203.574 183.695 202.624 184.004V182.119C203.287 182.107 203.737 181.818 203.674 181.088C204.224 181.038 204.678 180.998 205.132 180.956C208.071 180.956 211.009 180.956 213.948 180.956C214.456 180.978 214.964 180.999 215.472 181.02C215.494 181.328 215.518 181.635 215.542 181.953C215.981 182.009 216.339 182.055 216.695 182.102C216.67 182.755 216.645 183.408 216.62 184.062C216.046 184.099 215.741 184.404 215.703 184.975V184.974Z" fill="#66B3BB"/>
<path d="M323.673 179.073C323.271 179.027 323.113 178.799 323.121 178.4C323.136 177.657 323.125 176.914 323.125 176.133C323.456 176.052 323.688 175.997 323.923 175.941C327.448 175.941 330.972 175.941 334.497 175.942C334.671 176.123 334.969 176.289 334.993 176.489C335.056 176.998 334.998 177.521 334.988 178.04C334.382 178.078 334.043 178.387 333.971 178.967C333.47 178.983 332.968 179.011 332.467 179.014C329.536 179.037 326.605 179.055 323.673 179.073Z" fill="#66B3BB"/>
<path d="M95.1354 176.081C95.1304 176.826 95.1178 177.572 95.1241 178.317C95.1266 178.677 95.075 178.98 94.6496 179.057C91.1835 179.057 87.7173 179.057 84.1795 179.057C84.119 178.3 83.856 177.834 83.087 178.003C83.0757 177.677 83.0631 177.352 83.0518 177.026C83.8963 177.237 84.0473 176.553 84.26 176.003C86.3014 176.003 88.2711 175.993 90.2395 176.006C91.8719 176.017 93.5043 176.053 95.1367 176.08L95.1354 176.081Z" fill="#66B3BB"/>
<path d="M230.552 168.917C230.576 168.673 230.6 168.428 230.633 168.098H257.6C257.646 168.369 257.691 168.643 257.736 168.917C257.404 168.939 257.072 168.978 256.738 168.978C248.342 168.981 239.945 168.981 231.549 168.978C231.217 168.978 230.884 168.939 230.551 168.917H230.552Z" fill="#69AEBB"/>
<path d="M236.867 175.796C236.355 175.231 236.667 174.559 236.627 173.932C236.909 173.976 237.19 174.021 237.548 174.079V175.704C237.326 175.734 237.097 175.765 236.867 175.796Z" fill="#66B3BB"/>
<path d="M334.243 179.066C334.152 179.033 334.062 178.999 333.97 178.967C334.042 178.386 334.381 178.077 334.987 178.04C335.113 178.652 334.999 179.091 334.242 179.066H334.243Z" fill="#8AC4C9"/>
<path d="M215.703 184.974C215.741 184.402 216.046 184.098 216.619 184.06C216.666 184.715 216.36 185.02 215.703 184.974Z" fill="#69AEBB"/>
<path d="M331.201 157.897C331.282 157.542 331.095 157.006 331.729 157.008C332.36 157.008 332.173 157.545 332.253 157.9C331.902 157.9 331.552 157.898 331.201 157.897Z" fill="#8CC6CB"/>
<path d="M382.291 157.898C382.369 157.317 382.712 157.007 383.319 156.969C383.324 157.636 382.982 157.946 382.291 157.898Z" fill="#8CC6CB"/>
<path d="M132.127 161.992C131.513 161.941 131.187 161.612 131.147 161.005C131.453 161.005 131.76 161.005 132.127 161.005V161.992Z" fill="#4094A2"/>
<path d="M236.592 177.037C236.42 177.017 236.247 176.997 236.075 176.977C236.247 176.829 236.42 176.682 236.592 176.535C236.592 176.702 236.592 176.87 236.592 177.037Z" fill="#8CC6CB"/>
<path d="M123.09 139.644C123.425 139.644 123.76 139.644 124.094 139.643C124.428 139.659 124.762 139.691 125.095 139.691C137.516 139.693 149.937 139.693 162.358 139.691C162.692 139.691 163.025 139.659 163.357 139.642C163.696 139.681 164.036 139.719 164.374 139.758V142.872H155.436C155.388 143.319 155.354 143.631 155.321 143.945L155.325 143.941C146.436 143.934 137.547 143.926 128.658 143.92C126.899 143.919 125.139 143.92 123.547 143.92C123.061 143.426 122.685 143.04 122.108 142.453C122.108 141.748 122.108 140.753 122.108 139.76C122.436 139.722 122.763 139.683 123.09 139.645V139.644Z" fill="#4094A2"/>
<path d="M252.691 139.77C253.029 139.729 253.369 139.688 253.708 139.648C254.042 139.648 254.378 139.645 254.713 139.644C255.047 139.66 255.38 139.692 255.714 139.692C268.471 139.694 281.227 139.694 293.984 139.692C294.317 139.692 294.651 139.659 294.983 139.643C295.322 139.682 295.661 139.719 296 139.758V140.729C296.35 140.861 296.614 140.96 296.927 141.079V142.502C296.453 142.98 296.077 143.36 295.495 143.947C294.493 143.947 293.21 143.947 291.926 143.947C291.523 143.901 291.119 143.855 290.716 143.808C290.687 143.565 290.658 143.32 290.614 142.955H252.766C252.739 141.815 252.715 140.793 252.689 139.772L252.691 139.77Z" fill="#4094A2"/>
<path d="M137.163 149.927H150.79C151.292 150.367 151.662 150.664 151.997 150.999C152.125 151.127 152.279 151.383 152.229 151.499C152.149 151.682 151.927 151.831 151.73 151.925C151.593 151.992 151.401 151.945 151.233 151.945C146.832 151.945 142.432 151.947 138.031 151.944C137.825 151.944 137.62 151.908 137.268 151.875C137.234 151.22 137.2 150.573 137.166 149.926L137.162 149.928L137.163 149.927Z" fill="#4094A2"/>
<path d="M267.297 146.907C267.321 146.544 267.345 146.182 267.378 145.679H285.824C285.869 146.084 285.914 146.489 285.958 146.894C285.958 146.894 285.872 146.982 285.873 146.981C285.33 146.962 284.788 146.931 284.244 146.93C278.596 146.92 272.946 146.913 267.297 146.907Z" fill="#66B3BB"/>
<path d="M267.297 146.907C272.946 146.913 278.596 146.92 284.244 146.93C284.787 146.93 285.33 146.963 285.873 146.981C285.855 147.258 285.838 147.536 285.816 147.869H266.937C266.896 147.559 266.853 147.25 266.812 146.94C266.974 146.928 267.135 146.917 267.297 146.906V146.907Z" fill="#4094A2"/>
<path d="M253.96 147.844C251.862 147.844 249.764 147.844 247.666 147.844C247.94 146.852 248.073 146.706 248.949 146.689C250.192 146.665 251.435 146.665 252.678 146.689C253.554 146.705 253.686 146.851 253.96 147.844Z" fill="#66B3BB"/>
<path d="M260.833 148.963C260.803 149.291 260.772 149.617 260.742 149.944C260.373 149.888 259.838 150.113 259.78 149.489C259.718 148.82 260.179 148.677 260.734 148.69C260.767 148.781 260.801 148.872 260.833 148.963Z" fill="#66B3BB"/>
<path d="M246.681 147.948C246.828 148.748 246.374 148.978 245.688 148.991C245.68 148.312 246.011 147.964 246.681 147.948Z" fill="#8CC6CB"/>
<path d="M282.822 154.936C282.867 155.614 282.55 155.93 281.871 155.886C281.805 155.19 282.122 154.874 282.822 154.936Z" fill="#8CC6CB"/>
<g clip-path="url(#clip1_45_492)">
<path d="M211.303 3.28316C207.286 17.7802 203.274 32.2772 199.246 46.8168C191.025 43.5467 185.408 31.1268 187.286 21.3911C189.65 9.16291 200.53 0.726741 212.351 1.00901C224.322 1.29661 234.025 9.6742 236.475 22.1847C238.342 31.718 231.704 43.9302 225.333 45.986C223.172 38.8333 221.033 31.6754 218.85 24.528C216.684 17.45 214.48 10.3825 212.287 3.30979C211.961 3.29913 211.629 3.28848 211.303 3.27783V3.28316Z" fill="#848387"/>
<path d="M104.762 94.6004C105.778 88.6142 107.057 81.0355 108.351 73.4567C108.442 72.9348 108.576 72.4129 108.769 71.9229C109.341 70.453 110.4 69.4783 112.021 69.7712C113.748 70.0855 114.198 71.4436 113.941 73.02C112.951 79.1235 111.94 85.2269 110.935 91.3304C110.721 92.6405 110.443 93.94 110.272 95.2502C110.052 96.9225 110.223 98.5363 112.058 99.2446C113.936 99.9689 115.669 99.3671 116.813 97.8492C117.519 96.9119 117.894 95.623 118.108 94.4407C119.263 87.9165 120.306 81.371 121.419 74.8361C121.595 73.7923 121.825 72.7378 122.21 71.7631C122.788 70.2932 123.944 69.4091 125.554 69.8032C127.099 70.1813 127.549 71.4542 127.308 72.9348C126.324 79.0383 125.313 85.1417 124.313 91.2451C124.099 92.5553 123.826 93.8548 123.644 95.165C123.398 96.9438 123.596 98.5895 125.58 99.3245C127.661 100.097 129.293 99.2233 130.394 97.551C130.999 96.6349 131.288 95.4419 131.486 94.3341C132.727 87.4638 133.903 80.5828 135.102 73.7071C135.192 73.1851 135.273 72.6579 135.422 72.1519C135.92 70.453 137.193 69.6008 138.84 69.8511C140.616 70.1228 140.894 71.6033 140.648 73.1425C139.867 78.0263 139.076 82.9102 138.263 87.794C137.829 90.409 137.391 93.024 136.888 95.6283C135.931 100.565 132.705 104.033 127.795 104.778C125.891 105.066 123.698 104.672 121.879 103.963C120.183 103.303 118.964 103.164 117.204 103.883C115.326 104.65 113.026 105.028 111.026 104.741C106.447 104.091 104.222 100.837 104.762 94.5951V94.6004Z" fill="#394558"/>
<path d="M345.797 90.8297C345.177 90.8297 344.546 90.883 343.931 90.8191C341.722 90.5954 340.662 91.57 340.416 93.7589C340.154 96.1236 339.689 98.4723 339.288 100.821C339.154 101.604 339.004 102.392 338.753 103.143C338.234 104.72 337.218 105.838 335.42 105.54C333.618 105.242 333.308 103.756 333.484 102.27C333.8 99.644 334.201 97.0184 334.714 94.4247C335.099 92.4807 335.26 90.9788 332.612 90.5687C331.928 90.4622 330.836 88.939 330.991 88.3425C331.254 87.3306 332.339 85.8021 333.126 85.7755C336.233 85.6689 336.48 83.6984 336.934 81.3923C338.352 74.2077 343.38 70.3038 350.505 70.6287C355.26 70.8417 358.795 74.0745 358.474 78.7826C358.111 84.1351 357.036 89.4397 356.223 94.7602C355.821 97.3805 355.436 100.012 354.8 102.573C354.548 103.58 353.832 104.736 352.976 105.279C351.093 106.472 349.066 105.162 349.306 102.946C349.606 100.139 350.157 97.3592 350.595 94.5685C351.173 90.9043 351.12 90.8457 347.391 90.8244C346.857 90.8244 346.327 90.8244 345.792 90.8244L345.797 90.8297ZM347.044 85.4879C347.573 85.4879 348.108 85.5092 348.638 85.4879C350.087 85.4186 351.917 85.898 352.35 83.8582C352.831 81.5947 353.842 79.1767 351.815 77.105C350.387 75.6403 347.611 75.6244 345.375 76.9718C343.46 78.1275 341.401 82.6332 342.246 84.3801C343.209 86.3666 345.236 85.179 346.771 85.4932C346.857 85.5092 346.947 85.4932 347.038 85.4932L347.044 85.4879Z" fill="#394558"/>
<path d="M237.154 70.0908C237.598 70.0908 238.042 70.1015 238.486 70.0908C242.295 69.963 245.36 71.3637 247.045 74.8148C248.901 78.6015 248.195 82.3243 245.504 85.4506C244.188 86.9844 243.841 88.0922 244.991 89.8018C245.547 90.6273 245.862 91.8203 245.793 92.811C245.558 96.0597 245.205 99.3032 244.675 102.515C244.359 104.443 242.931 105.396 240.952 105.055C238.855 104.693 239.005 103.154 239.315 101.556C239.684 99.6494 239.995 97.732 240.273 95.8094C240.754 92.502 237.727 89.6048 234.485 90.4622C233.715 90.6646 232.881 91.8097 232.667 92.6672C232.078 95.0638 231.827 97.535 231.393 99.9689C231.196 101.098 230.992 102.243 230.597 103.314C230.008 104.89 228.569 105.524 227.157 104.965C226.387 104.661 225.547 103.25 225.611 102.403C225.841 99.3351 226.435 96.2887 226.911 93.237C227.13 91.8363 227.285 90.4889 225.29 90.3344C223.932 90.2332 222.461 89.7486 222.75 88.3053C222.98 87.1442 224.247 85.3441 225.13 85.3015C228.393 85.1417 228.724 83.1019 229.029 80.6893C229.297 78.5909 229.751 76.5138 230.169 74.4367C230.923 70.682 231.613 70.1441 235.55 70.1068C236.085 70.1068 236.614 70.1068 237.149 70.1068L237.154 70.0908ZM242.337 79.6827C242.337 77.6163 240.508 75.7948 238.251 75.4806C235.801 75.1397 235.175 76.5138 234.993 78.5589C234.86 80.0502 234.341 81.5201 234.319 83.0007C234.309 83.6292 235.02 84.6677 235.603 84.8328C238.593 85.6796 242.337 82.7291 242.337 79.688V79.6827Z" fill="#394558"/>
<path d="M58.2152 104.64C52.3902 104.624 48.7368 101.274 49.2984 95.5538C49.8922 89.5089 50.9192 83.4534 52.4276 77.5683C53.92 71.7418 61.5315 68.1895 67.3138 69.9949C71.4646 71.2945 73.8556 75.1823 73.1495 79.8158C72.406 84.705 71.5555 89.5835 70.6408 94.446C69.4694 100.667 64.543 104.656 58.2152 104.64ZM67.4689 80.0715C67.5759 78.1435 67.1266 76.5245 65.3133 75.5232C63.4572 74.5006 61.4941 74.703 60.0713 76.0079C58.8464 77.1263 57.7124 78.74 57.354 80.3218C56.3216 84.8861 55.653 89.5356 54.9363 94.1691C54.3853 97.7108 56.9689 99.9849 60.4617 99.1168C62.8206 98.531 64.5109 97.077 64.9709 94.707C65.9123 89.8498 66.6505 84.95 67.4689 80.0715Z" fill="#394558"/>
<path d="M393.494 91.2505C392.794 91.0854 392.103 91.096 391.643 90.7765C390.729 90.1374 389.301 89.3332 389.279 88.5609C389.252 87.6662 390.493 85.9619 391.21 85.9513C395.061 85.882 395.174 83.2351 395.527 80.5668C395.805 78.4684 396.179 76.3807 396.575 74.3036C397.089 71.6247 398.18 70.7193 400.935 70.6341C402.443 70.5915 403.957 70.5542 405.465 70.6394C413.334 71.0868 416.024 77.4086 413.275 83.8475C411.349 88.3639 407.423 90.7179 402.486 90.7499C399.924 90.7658 399.052 91.8204 398.768 94.0839C398.431 96.7947 398.057 99.5216 397.42 102.174C397.137 103.346 396.42 104.778 395.457 105.353C393.441 106.557 391.451 104.831 391.815 102.286C392.248 99.2286 392.863 96.1982 393.377 93.1518C393.473 92.566 393.451 91.9588 393.494 91.2452V91.2505ZM400.533 84.9766C404.882 86.0578 408.199 84.1138 408.653 80.5455C408.937 78.3033 407.492 76.4446 405.155 76.0505C402.62 75.6244 401.871 76.2209 401.395 79.1448C401.084 81.0408 400.828 82.9421 400.528 84.9819L400.533 84.9766Z" fill="#394558"/>
<path d="M11.8557 69.0682C13.8135 69.0682 15.7712 69.0256 17.7236 69.0842C19.2855 69.1322 20.6441 69.7446 20.719 71.4755C20.7939 73.2863 19.5101 74.1012 17.8305 74.3249C17.3063 74.3941 16.7608 74.4101 16.2312 74.3781C14.3484 74.2663 13.6263 75.161 13.3267 76.9931C11.2834 89.5462 9.13847 102.083 7.02563 114.626C6.71539 116.452 6.32491 118.274 6.08956 120.111C5.82211 122.194 4.85395 123.429 2.60738 123.168C0.0505736 122.87 0.441048 120.857 0.665705 119.286C1.33433 114.567 2.20086 109.87 2.98716 105.167C4.54371 95.8467 6.03607 86.5105 7.69425 77.2062C8.08472 75.0119 7.44285 74.261 5.30861 74.3568C3.73066 74.4261 2.01365 74.2716 2.02434 72.2052C2.03504 70.3465 3.50066 69.3452 5.20163 69.1961C7.40541 68.999 9.64128 69.1481 11.8611 69.1481C11.8611 69.1215 11.8611 69.0949 11.8611 69.0682H11.8557Z" fill="#394558"/>
<path d="M180.98 84.9713C183.799 84.9713 186.008 84.9553 188.217 84.9766C189.64 84.9926 191.03 85.3068 191.153 87.0058C191.282 88.7686 190.169 89.9137 188.5 90.1107C186.478 90.3504 184.419 90.3025 182.376 90.2918C180.691 90.2865 179.632 90.8617 179.557 92.6885C179.541 93.1252 179.407 93.5566 179.327 93.9933C178.46 98.9144 179.193 99.7932 184.194 99.8305C184.815 99.8305 185.441 99.8305 186.061 99.8731C187.602 99.9902 188.811 100.8 188.527 102.344C188.345 103.319 187.275 104.784 186.473 104.869C183.761 105.162 180.932 105.284 178.262 104.826C174.914 104.246 173.149 101.029 173.4 97.0024C173.459 96.0331 173.491 95.0425 173.727 94.1105C174.304 91.8257 174.144 90.2066 171.196 89.8817C170.603 89.8178 169.576 88.1135 169.784 87.533C170.143 86.5477 171.32 85.163 172.154 85.1577C175.165 85.1577 175.369 83.267 175.92 81.0834C176.561 78.5589 177.53 76.0398 178.813 73.771C180.081 71.5288 182.397 70.3358 185.013 70.1441C187.045 69.995 189.137 69.8991 191.137 70.1973C192.122 70.3465 193.769 71.5661 193.694 72.0933C193.539 73.1798 192.619 74.6231 191.646 75.0066C190.239 75.5658 188.511 75.3687 186.917 75.406C183.686 75.4806 182.59 76.2369 181.868 79.3259C181.472 81.0088 181.317 82.7504 180.974 84.9606L180.98 84.9713Z" fill="#394558"/>
<path d="M295.068 75.8534C289.205 74.5645 287.488 75.6137 286.579 80.9343C285.67 86.2495 284.835 91.5753 284.001 96.9065C283.557 99.7452 284.493 100.821 287.419 100.885C289.376 100.928 291.334 100.869 293.292 100.938C294.854 100.991 296.277 101.647 296.319 103.319C296.367 105.183 295.062 106.179 293.185 106.205C290.248 106.243 287.306 106.328 284.375 106.179C280.797 105.998 278.277 103.575 278.507 99.9263C278.823 94.8294 279.566 89.7432 280.406 84.6996C280.936 81.5041 281.642 78.2607 282.867 75.2782C284.332 71.7205 287.381 69.9257 291.355 69.963C293.757 69.9896 296.159 70.0162 298.561 70.1014C300.919 70.1867 301.561 70.863 301.363 73.2331C301.235 74.8148 300.93 76.386 300.604 77.9411C300.229 79.7359 299.079 80.7905 297.197 80.6041C295.207 80.4017 294.929 78.9264 295.068 77.2701C295.105 76.844 295.073 76.4073 295.073 75.8481L295.068 75.8534Z" fill="#394558"/>
</g>
</g>
<defs>
<clipPath id="clip0_45_492">
<rect width="413" height="185" fill="white" transform="translate(0.5)"/>
</clipPath>
<clipPath id="clip1_45_492">
<rect width="413.823" height="122.197" fill="white" transform="translate(0.5 1.00366)"/>
</clipPath>
</defs>
</svg>
